inDegrees=yes
name=ik_S49_A04_T01
DataType=double
version=3
OpenSimVersion=4.3-2021-08-27-4bc7ad9
endheader
time	pelvis_tilt	pelvis_list	pelvis_rotation	pelvis_tx	pelvis_ty	pelvis_tz	hip_flexion_r	hip_adduction_r	hip_rotation_r	knee_angle_r	knee_angle_r_beta	ankle_angle_r	subtalar_angle_r	mtp_angle_r	hip_flexion_l	hip_adduction_l	hip_rotation_l	knee_angle_l	knee_angle_l_beta	ankle_angle_l	subtalar_angle_l	mtp_angle_l	lumbar_extension	lumbar_bending	lumbar_rotation	arm_flex_r	arm_add_r	arm_rot_r	elbow_flex_r	pro_sup_r	wrist_flex_r	wrist_dev_r	arm_flex_l	arm_add_l	arm_rot_l	elbow_flex_l	pro_sup_l	wrist_flex_l	wrist_dev_l
0	0	0	0	0	0.9399999999999999	0	0	0	0	0	0	0	0	0	0	0	0	0	0	0	0	0	0	0	0	0	0	0	0	89.99999999963507	0	0	0	0	0	0	89.99999999869995	0	0
0.02	26.46176593699846	6.420964250874683	24.24573416429307	0	0.9399999999999999	0	40.9055588758518	-1.003179918669938	-8.681152306642366	69.22804841856355	1.208257379633987	0	0	0	48.58967348749864	-17.95337280165784	-7.627669628351992	76.17812796164468	1.329559150936256	0	0	0	0	0	0	3.197080415942138	-3.197080415942138	0.5926864999003792	18.59253426359378	89.40731353481758	0	0	3.197080415942138	-3.197080415942138	0.5926864999003792	18.59253426359378	89.40731353399366	0	0
0.04	26.47674989899576	6.423904443632441	24.24092319873218	0	0.9399999999999999	0	40.87307908628053	-0.9973065446878383	-8.683186971123758	69.16561617314612	1.20716773139204	0	0	0	48.54430723582653	-17.95376909369082	-7.635620191468	76.06259342381836	1.327542692851417	0	0	0	0	0	0	3.704374627844113	-3.704374627844113	0.6845903573103835	19.93966152817748	89.3154096827873	0	0	3.704374627844113	-3.704374627844113	0.6845903573103835	19.93966152817748	89.31540968198134	0	0
0.06	26.49833630142711	6.424982467954473	24.24038979620468	0	0.9399999999999999	0	40.87625525105312	-0.998330383650163	-8.676957811484458	69.20814112088725	1.207909931744361	0	0	0	48.53703740938208	-17.96281641771321	-7.613279743859783	76.14406538167823	1.328964646764118	0	0	0	0	0	0	4.054356954360848	-4.054356954360848	0.7468777361585379	20.71173005835162	89.25312230756874	0	0	4.054356954360848	-4.054356954360848	0.7468777361585379	20.71173005835162	89.25312230677422	0	0
0.08	26.49279287769443	6.432388216878424	24.24587161805495	0	0.9399999999999999	0	40.87328374593403	-1.009880641520628	-8.684563920120162	69.22908049290031	1.208275392729289	0	0	0	48.56813902701659	-17.94923666736053	-7.615472064803766	76.18206935116804	1.329627941160543	0	0	0	0	0	0	4.665386423439168	-4.665386423439169	0.8568268692688817	22.50670208093822	89.14317318088827	0	0	4.665386423439168	-4.665386423439169	0.8568268692688817	22.50670208093822	89.14317318011405	0	0
0.1	26.4951653104171	6.426443418057009	24.2267458419346	0	0.9399999999999999	0	40.88040321444979	-1.003810308737147	-8.672176785670088	69.22678514260316	1.208235331309117	0	0	0	48.55031301379842	-17.97038525084906	-7.621398932275009	76.17418324845488	1.329490302703047	0	0	0	0	0	0	4.801692138420799	-4.801692138420799	0.8811041662778032	22.90185958872264	89.11889588529533	0	0	4.801692138420799	-4.801692138420799	0.8811041662778032	22.90185958872264	89.11889588452581	0	0
0.12	26.49043617127969	6.434233383411282	24.23451176054931	0	0.9399999999999999	0	40.88271049109998	-1.009460747511976	-8.67179127756795	69.22614850420234	1.208224219872879	0	0	0	48.55468228608568	-17.95807161563503	-7.621288557449908	76.16193341191202	1.329276502722543	0	0	0	0	0	0	5.385558293766522	-5.385558293766522	0.9825268353861967	24.28864604722483	89.0174732220655	0	0	5.385558293766522	-5.385558293766522	0.9825268353861967	24.28864604722483	89.01747322131418	0	0
0.14	26.48701642712424	6.415253316161726	24.23843417801873	0	0.9399999999999999	0	40.8827361007348	-0.9930552646631138	-8.692056128322129	69.18920148698436	1.207579372773634	0	0	0	48.5648309261313	-17.96381914095426	-7.608890976213584	76.0977421932119	1.328156154605359	0	0	0	0	0	0	5.501882086761154	-5.501882086761154	1.00276263490125	24.58268571341148	88.99723742372399	0	0	5.501882086761154	-5.501882086761154	1.00276263490125	24.58268571341148	88.99723742297664	0	0
0.16	26.48464529294815	6.426778400245268	24.24457471143959	0	0.9399999999999999	0	40.86111299515098	-1.02427914725145	-8.67238535646738	69.14241263369928	1.206762753230576	0	0	0	48.54059346809088	-17.94197580797832	-7.616524806104588	76.03315881833001	1.32702896207162	0	0	0	0	0	0	5.806958703016258	-5.806958703016258	1.054614725666008	25.27374919118386	88.94538533594948	0	0	5.806958703016258	-5.806958703016258	1.054614725666008	25.27374919118386	88.94538533521175	0	0
0.18	26.52225716260762	6.429231971404644	24.22909745324487	0	0.9399999999999999	0	40.85145631720478	-0.9909233665092727	-8.676601131790301	69.20765799839171	1.207901499666124	0	0	0	48.51502747985715	-17.95662587545126	-7.607453449082817	76.13134079402369	1.328742560813587	0	0	0	0	0	0	5.908235674877706	-5.908235674877705	1.072490357414437	25.59193067563772	88.92750970524217	0	0	5.908235674877706	-5.908235674877705	1.072490357414437	25.59193067563772	88.92750970450815	0	0
0.2	26.52643738938165	6.437151090099383	24.21432537661476	0	0.9399999999999999	0	40.82938875520752	-0.9848417150731368	-8.671626633077295	69.16871586679312	1.207221831251984	0	0	0	48.50692681922404	-17.98333043023732	-7.62073217259594	76.06960689701674	1.327665101050729	0	0	0	0	0	0	6.171770130772737	-6.171770130772737	1.117631349232962	26.1946500635506	88.88236871603188	0	0	6.171770130772737	-6.171770130772737	1.117631349232962	26.1946500635506	88.88236871530665	0	0
